<?xml version="1.0" encoding="UTF-8"?>
<svg version="1.1" xmlns="http://www.w3.org/2000/svg" width="2500" height="2500">
<path d="M0 0 C825 0 1650 0 2500 0 C2500 825 2500 1650 2500 2500 C1675 2500 850 2500 0 2500 C0 1675 0 850 0 0 Z " fill="#DC102D" transform="translate(0,0)"/>
<path d="M0 0 C0.68406949 0.01254542 1.36813898 0.02509085 2.07293785 0.03801644 C51.7019197 0.93676081 101.31468324 1.10635754 150.95080948 1.01403427 C163.81175408 0.99012984 176.67269984 0.97751387 189.53366089 0.96633911 C193.97643476 0.9623442 198.41920856 0.95827509 202.86198235 0.95417976 C203.9700718 0.95316054 205.07816126 0.95214131 206.21982918 0.95109119 C218.66722554 0.93948567 231.11461892 0.925562 243.56201172 0.91064453 C244.69287055 0.9092921 245.82372938 0.90793967 246.98885666 0.90654625 C265.50110706 0.88414451 284.01334036 0.8542271 302.52557708 0.82267712 C321.66912407 0.79033449 340.8126618 0.76944587 359.95623291 0.75840485 C371.70350575 0.75119803 383.45068866 0.73455451 395.19792841 0.70560409 C403.19745295 0.68666512 411.19694148 0.67851739 419.19648828 0.67900907 C423.80716586 0.67894591 428.4177019 0.67391916 433.02834702 0.65584183 C437.24357446 0.63940858 441.45857569 0.63670894 445.67382477 0.64509059 C447.20005231 0.645666 448.72629187 0.64112556 450.25248612 0.63102923 C452.322297 0.61806604 454.39126881 0.6235242 456.46107674 0.63364983 C457.61149393 0.63196859 458.76191113 0.63028736 459.94718945 0.62855518 C464.25425166 1.15260865 466.85966535 2.81849585 469.83935547 5.90576172 C474.03919989 11.36617983 477.19982714 16.90136053 480.125 23.125 C487.06868573 37.41278261 494.83783035 51.18986417 503.08984375 64.76171875 C503.77208008 65.88602295 504.45431641 67.01032715 505.15722656 68.16870117 C506.48016515 70.33939586 507.81116769 72.50520283 509.15136719 74.6652832 C514.17440428 82.87900816 514.17440428 82.87900816 515.23828125 87.15625 C515.61533203 88.56390625 515.61533203 88.56390625 516 90 C516.99 90.33 517.98 90.66 519 91 C520.03515625 92.79296875 520.03515625 92.79296875 521.0625 95.1875 C524.18665851 101.76418203 528.36775495 107.40828583 532.69042969 113.23193359 C533.97444748 114.96550123 535.242462 116.70980892 536.5078125 118.45703125 C537.29615081 119.53438446 538.08518177 120.61123127 538.875 121.6875 C539.57367187 122.64011719 540.27234375 123.59273437 540.9921875 124.57421875 C542.85575002 126.82572133 544.6442443 128.30933912 547 130 C547.69748583 131.31747324 548.36959957 132.64914193 549 134 C549.66 134.33 550.32 134.66 551 135 C551.474375 135.804375 551.94875 136.60875 552.4375 137.4375 C553.89664045 140.2355972 553.89664045 140.2355972 557 142 C558.01430553 143.65799942 559.0126081 145.32583304 560 147 C561.37822608 148.63731121 562.7975269 150.24068034 564.25 151.8125 C566.96005328 154.75800117 569.62650763 157.72597464 572.234375 160.76171875 C576.27525371 165.39456986 580.61834978 169.69186741 585 174 C589.41165822 178.33763711 593.75560661 182.64570739 597.75 187.375 C600.26945091 190.32046781 602.60514049 192.0928384 606 194 C607.70115777 195.71775443 609.34221886 197.49599343 610.9375 199.3125 C620.5691009 210.07145115 630.61274115 220.09895933 642 229 C649.07930368 234.75918762 649.07930368 234.75918762 651 237 C651 237.66 651 238.32 651 239 C651.91072266 239.1546875 651.91072266 239.1546875 652.83984375 239.3125 C655.9101927 240.28968158 657.15089107 242.49142055 659.12109375 244.92578125 C661.27720025 247.30601524 663.60507556 249.19694098 666.125 251.1875 C670.39828467 254.58525416 674.26279832 258.16018622 678.0625 262.0625 C682.22790273 266.32876958 686.51115006 270.10273855 691.2421875 273.74609375 C694.7970746 276.65143349 698.10538795 279.78161743 701.4375 282.9375 C706.58127159 287.80352597 711.78631382 292.44217046 717.33984375 296.83984375 C719.53716426 298.62415835 721.6537151 300.45379504 723.76953125 302.33203125 C727.94882391 306.00861092 732.30894255 309.39751436 736.75 312.75 C737.49121094 313.31332031 738.23242188 313.87664062 738.99609375 314.45703125 C743.07498545 317.56483657 743.07498545 317.56483657 747.23925781 320.55566406 C748.1108252 321.27061035 748.1108252 321.27061035 749 322 C749 322.66 749 323.32 749 324 C749.763125 324.103125 750.52625 324.20625 751.3125 324.3125 C754.28812061 325.07370527 754.9034959 325.9034959 757 328 C759.60611077 328.72197162 759.60611077 328.72197162 762 329 C762 328.34 762 327.68 762 327 C768.75 323 768.75 323 771 323 C771 322.34 771 321.68 771 321 C772.765625 319.80859375 772.765625 319.80859375 775.25 318.4375 C783.17421502 313.84326138 790.53996442 308.49871843 797 302 C798.63111859 300.68980067 800.27767683 299.39863935 801.9375 298.125 C804.79867879 295.86947219 807.39794922 293.76332524 809.625 290.875 C812.11664914 287.85879315 814.64449445 285.94164342 817.7890625 283.66796875 C825.57230493 277.79615865 832.48078191 270.69163816 839.59179688 264.03344727 C844.94053773 259.0336858 850.33169674 254.12375158 856.0625 249.5625 C858.46227048 247.4690832 860.34411062 245.48306342 862.375 243.0625 C865.33913561 239.566003 868.49554014 237.01083625 872.22265625 234.37109375 C874.56915377 232.56093852 876.17004256 230.31794609 878 228 C879.423125 227.071875 879.423125 227.071875 880.875 226.125 C883.56739525 224.29417123 885.00254381 222.95760317 887 220.5 C889.64161279 217.25143702 892.4975898 215.31010034 896 213 C896.90675081 211.96446429 897.78192482 210.90050528 898.625 209.8125 C901.09328779 206.88952761 901.54351521 206.71513478 905 206 C905.43892578 205.08347656 905.43892578 205.08347656 905.88671875 204.1484375 C907.17781505 201.65684815 908.32640856 200.82972693 910.625 199.25 C921.1880776 191.31914562 930.52221128 181.22829411 938.64453125 170.859375 C942.25728728 166.47374081 946.18948072 162.39239331 950.12939453 158.30053711 C953.53810846 154.72239541 956.36226067 151.17847491 959 147 C960.4375 145.4375 960.4375 145.4375 962 144 C968.29548019 137.88439067 974.4238742 131.64720802 978.69921875 123.921875 C980 122 980 122 982.2421875 119.86328125 C985.89838603 116.06725643 988.59931606 111.86313576 991.4375 107.4375 C992.01226074 106.5508667 992.58702148 105.6642334 993.17919922 104.75073242 C996.85802603 99.00210738 1000.10474601 93.27422486 1002.8515625 87.01953125 C1004 85 1004 85 1007 84 C1007.43343437 82.4400763 1007.85745981 80.87723076 1008.24853516 79.30615234 C1009.97687536 74.00209075 1013.0129903 69.18921007 1015.6875 64.3125 C1016.35755618 63.07899542 1017.02689583 61.84510138 1017.69555664 60.61083984 C1019.08934883 58.03909807 1020.48623119 55.46906786 1021.88476562 52.89990234 C1024.29199081 48.47038116 1026.66415282 44.0224612 1029.03364563 39.57267761 C1031.81435792 34.351402 1034.61365418 29.14040319 1037.42138672 23.93359375 C1038.39118218 22.13138803 1039.3572212 20.3271473 1040.31689453 18.51953125 C1041.36464269 16.54709112 1042.42851608 14.5846123 1043.5 12.625 C1044.0259375 11.64789062 1044.551875 10.67078125 1045.09375 9.6640625 C1047.77631776 5.91506411 1049.83892733 3.054884 1054 1 C1060.10655224 0.08487519 1066.1806599 0.21596069 1072.34312439 0.2784729 C1074.25070398 0.27585611 1076.15828147 0.27060201 1078.06584746 0.2629379 C1083.30643382 0.24951682 1088.54628494 0.27352765 1093.78677762 0.30360627 C1099.43837721 0.32950269 1105.08993492 0.32074982 1110.74157715 0.31619263 C1120.53296174 0.3130456 1130.32410655 0.33188006 1140.11543083 0.36561966 C1154.272023 0.41436965 1168.42849915 0.4300071 1182.58516616 0.43754761 C1205.5530274 0.45068131 1228.52073738 0.49056471 1251.48852539 0.54736328 C1273.8003676 0.60247601 1296.11217562 0.64497465 1318.42407227 0.67041016 C1319.11191136 0.67119931 1319.79975045 0.67198847 1320.50843315 0.67280154 C1327.41604292 0.68071271 1334.32365296 0.68836759 1341.23126323 0.6958347 C1399.15426219 0.75847331 1457.07712785 0.86434374 1515 1 C1513.18202702 4.96634233 1510.56810305 7.59223513 1507.4375 10.5625 C1503.44008718 14.22576272 1503.44008718 14.22576272 1501 19 C1499.50390625 20.47265625 1499.50390625 20.47265625 1497.5625 22.0625 C1494.20841985 24.90056782 1491.08310425 27.86924344 1488 31 C1485.17205271 33.86651021 1482.34581326 36.6142706 1479.25 39.1875 C1474.65538982 43.11782919 1470.66215897 47.58335324 1466.56884766 52.02026367 C1458.38631247 60.86816072 1450.02920694 69.58155069 1440.80078125 77.34765625 C1437.9200825 79.99090044 1435.451895 82.98003381 1432.95703125 85.984375 C1431 88 1431 88 1428.78710938 89.2265625 C1425.17795401 91.52306781 1422.4288703 94.34223422 1419.44921875 97.390625 C1418.83158157 98.01346375 1418.2139444 98.63630249 1417.57759094 99.27801514 C1415.60938745 101.26395858 1413.64800276 103.25645642 1411.6875 105.25 C1409.11147924 107.86276172 1406.53227336 110.47231678 1403.94921875 113.078125 C1403.32812225 113.70481079 1402.70702576 114.33149658 1402.06710815 114.97717285 C1398.48491383 118.57125412 1394.82685077 121.99299209 1390.95239258 125.27246094 C1386.42067867 129.28226557 1382.24716815 133.69219926 1378 138 C1376.1072613 139.91975944 1374.21093242 141.83587254 1372.3125 143.75 C1371.48363281 144.59046875 1370.65476562 145.4309375 1369.80078125 146.296875 C1367.62310178 148.39862422 1365.4240722 150.38507695 1363.13452148 152.35888672 C1359.06443386 155.88972795 1355.29028307 159.64720105 1351.53515625 163.5078125 C1350.1443296 164.92101533 1348.75303948 166.33376215 1347.36132812 167.74609375 C1345.20654462 169.93795672 1343.05502005 172.13268625 1340.91137695 174.33544922 C1338.81608968 176.48557942 1336.70800969 178.62248103 1334.59765625 180.7578125 C1333.65503685 181.73610519 1333.65503685 181.73610519 1332.69337463 182.73416138 C1326.67693678 188.78517788 1319.81087573 193.75212694 1311.04991245 194.12584114 C1309.31343905 194.12640668 1309.31343905 194.12640668 1307.54188538 194.12698364 C1306.57136385 194.12932363 1306.57136385 194.12932363 1305.58123583 194.13171089 C1303.4135904 194.13569794 1301.24601509 194.1325396 1299.07836914 194.12939453 C1297.52206888 194.13075003 1295.96576894 194.1325308 1294.4094696 194.13470459 C1290.17181213 194.13927373 1285.93417896 194.13748819 1281.69652104 194.1343255 C1277.2268335 194.13178446 1272.75714796 194.13414566 1268.28746033 194.13571167 C1260.74575431 194.13753449 1253.20405805 194.1351306 1245.66235352 194.13037109 C1237.04360114 194.12499332 1228.42487267 194.12664259 1219.80612093 194.1321975 C1212.35074448 194.13680437 1204.89537504 194.13734106 1197.43999761 194.13475883 C1193.01395528 194.13322844 1188.58792395 194.13290863 1184.1618824 194.13629532 C1163.84017395 194.14975831 1143.5508551 193.89623143 1123.23796964 193.29036874 C1113.58709508 193.00339367 1103.94787872 192.86454441 1094.29296875 192.90234375 C1092.79885406 192.90422768 1091.30473872 192.90564208 1089.81062317 192.90663147 C1086.03160638 192.9103024 1082.25263327 192.91998249 1078.47363281 192.93133545 C1074.55599559 192.94189935 1070.63835072 192.9462008 1066.72070312 192.95117188 C1059.14711631 192.96163368 1051.57356444 192.97850123 1044 193 C1047.79543847 202.96239391 1058.89348581 208.40196695 1067.328125 214.34765625 C1073.99366804 219.0567922 1080.50582701 223.8996749 1086.90087891 228.97070312 C1093.98317258 234.58599256 1101.23312355 239.96873156 1108.515625 245.3203125 C1116.75636105 251.37608002 1124.96403853 257.45744256 1133.046875 263.72265625 C1135.90631709 265.92775511 1138.79121164 268.09361044 1141.6875 270.25 C1146.89227349 274.13457198 1152.01058749 278.12243913 1157.125 282.125 C1162.60796915 286.41264334 1168.11836008 290.58895789 1173.87109375 294.51171875 C1176.02464636 296.01722984 1178.07155979 297.61108604 1180.125 299.25 C1185.68559235 303.64256846 1191.56914763 307.56464879 1197.42578125 311.546875 C1198.36212402 312.19003662 1198.36212402 312.19003662 1199.31738281 312.84619141 C1200.68566614 313.78445417 1202.06233016 314.71048641 1203.44140625 315.6328125 C1205 317 1205 317 1205.625 320.125 C1204.21511719 328.86627345 1197.03944926 335.42722095 1191.0625 341.5625 C1189.69781786 342.97912056 1188.33452743 344.39708317 1186.97265625 345.81640625 C1186.31048096 346.50621582 1185.64830566 347.19602539 1184.96606445 347.90673828 C1182.4088795 350.62936386 1179.96100099 353.43840506 1177.51586914 356.26147461 C1175.79638185 358.23352631 1174.02678303 360.1391797 1172.1875 362 C1171.62417969 362.5775 1171.06085938 363.155 1170.48046875 363.75 C1169 365 1169 365 1167 365 C1166.76369873 365.72598389 1166.52739746 366.45196777 1166.28393555 367.19995117 C1164.78797595 370.46238902 1163.02545496 372.30110308 1160.45703125 374.80078125 C1159.09288086 376.14366211 1159.09288086 376.14366211 1157.70117188 377.51367188 C1156.73872254 378.44706983 1155.77582928 379.38001024 1154.8125 380.3125 C1149.15406089 385.8381669 1143.56794257 391.32822321 1138.4284668 397.34448242 C1136.16370142 399.96922588 1133.67903099 402.34438387 1131.1875 404.75 C1129.36037938 406.62932406 1127.65640223 408.54136363 1125.94921875 410.52734375 C1121.58089875 415.55050393 1116.96864233 420.32388519 1112.29223633 425.05786133 C1111.29503544 426.07184402 1110.30326057 427.0911881 1109.31665039 428.11547852 C1107.87529517 429.6112781 1106.41845204 431.09023783 1104.95703125 432.56640625 C1103.67276245 433.88040405 1103.67276245 433.88040405 1102.36254883 435.22094727 C1100 437 1100 437 1097.96337891 437.03198242 C1095.38551214 435.67701564 1093.66808847 434.00416189 1091.62890625 431.921875 C1090.80712891 431.09042969 1089.98535156 430.25898437 1089.13867188 429.40234375 C1087.8634668 428.08943359 1087.8634668 428.08943359 1086.5625 426.75 C1085.71623047 425.89019531 1084.86996094 425.03039063 1083.99804688 424.14453125 C1081.66008618 421.76812327 1079.32905833 419.38512825 1077 417 C1072.9421528 412.86795869 1068.68699846 409.06415672 1064.3046875 405.28125 C1061.99279238 402.99286568 1060.65471873 400.77708826 1059 398 C1056.96214266 396.09072639 1054.82803769 394.38737416 1052.64453125 392.6484375 C1051 391 1051 391 1051 388 C1050.39671875 387.73574219 1049.7934375 387.47148438 1049.171875 387.19921875 C1046.8957713 385.94244926 1045.83181567 384.84559838 1044.25 382.8125 C1042.15280922 380.26368645 1040.04221955 378.10222001 1037.5 376 C1033.3392978 372.46460564 1029.65097656 368.55468358 1025.9375 364.5625 C1025.36 363.94181641 1024.7825 363.32113281 1024.1875 362.68164062 C1021.27407333 359.52708 1018.41982223 356.33486379 1015.62109375 353.078125 C1010.9701398 347.73371596 1005.86508537 342.85198101 1000.7890625 337.91601562 C1000.056875 337.19478516 999.3246875 336.47355469 998.5703125 335.73046875 C997.90789551 335.08489014 997.24547852 334.43931152 996.56298828 333.77416992 C995 332 995 332 994 329 C992.39851831 327.44849374 992.39851831 327.44849374 990.5 326 C987.85494936 323.91864868 987.10026297 323.30078891 986 320 C984.24118094 318.21744992 984.24118094 318.21744992 982.125 316.5 C975.52461796 310.94691105 975.52461796 310.94691105 973.73828125 307.72265625 C971.38544781 304.03743174 968.40664906 301.3667571 965.1875 298.4375 C964.58357422 297.87353516 963.97964844 297.30957031 963.35742188 296.72851562 C959.75662213 293.41453954 956.10841126 290.65019754 952 288 C951.46375 287.401875 950.9275 286.80375 950.375 286.1875 C949.92125 285.795625 949.4675 285.40375 949 285 C944.80499935 285.31011254 942.0678378 288.14611361 939.03637695 290.78613281 C938.4659306 291.2766576 937.89548426 291.76718239 937.30775166 292.27257156 C931.06384508 297.70880183 925.23198359 303.53418991 919.41796875 309.421875 C918.26796407 310.57817772 917.11742419 311.73394838 915.96638489 312.88922119 C912.97486202 315.89387078 909.98900446 318.90407825 907.00488281 321.91607666 C902.21521534 326.74933628 897.418466 331.57554311 892.61846352 336.39853668 C890.96103304 338.06604876 889.30713238 339.73699982 887.65361023 341.40838623 C882.78527809 346.3154454 877.89336599 351.13683223 872.61482239 355.60906982 C870.10046822 357.77481332 867.81843619 360.12569787 865.5 362.5 C862.52666965 365.54497686 859.53237843 368.430384 856.30078125 371.19921875 C852.11310874 374.84933139 848.18317884 378.70492055 844.28125 382.65625 C843.57907349 383.36221313 842.87689697 384.06817627 842.15344238 384.79553223 C839.93315397 387.02791358 837.71616045 389.26352111 835.5 391.5 C832.57590521 394.45090378 829.64836943 397.39833203 826.71875 400.34375 C826.063302 401.00749634 825.407854 401.67124268 824.73254395 402.35510254 C819.05694829 408.06025671 813.16499425 413.35996142 806.75610352 418.22998047 C800.19833691 423.52267194 794.95684454 428.4608705 793.69482422 437.09472656 C793.19094084 444.1238899 793.55119412 451.09867759 793.9375 458.125 C794.00940065 460.5154126 794.07389634 462.9060598 794.13085938 465.296875 C794.31833539 472.20401555 794.64562867 479.09970899 795 486 C795.18417636 489.81099242 795.36236475 493.622248 795.5390625 497.43359375 C795.5810376 498.3215715 795.6230127 499.20954926 795.66625977 500.12443542 C796.06545568 508.83485222 796.23304008 517.54597674 796.38842773 526.2635498 C796.6623587 541.19006186 797.18680085 556.04063697 798.26708984 570.93164062 C799.0254662 581.56882941 799.39777377 592.19549092 799.65820312 602.85449219 C799.80201837 609.94413184 799.80201837 609.94413184 800.5 616.9921875 C801.36758692 623.01112155 801.28964134 629.11814669 801.4375 635.1875 C801.75488699 646.75899351 802.35467106 658.27922926 803.19897461 669.82592773 C805.76810202 705.02698388 807.53581481 740.33360964 808.60571289 775.6105957 C808.88373772 784.11046923 809.40677521 792.57933177 810 801.0625 C810.90945464 814.10299975 811.37651483 827.1255156 811.65820312 840.19360352 C811.81640689 847.34092541 812.05965153 854.46541208 812.49609375 861.6015625 C813.22179376 873.61877872 813.35101717 885.65207359 813.55224609 897.68725586 C813.60365009 900.68873037 813.66087606 903.69005062 813.71875 906.69140625 C813.73911316 908.07544395 813.73911316 908.07544395 813.7598877 909.48744202 C813.43131463 913.56932364 813.43131463 913.56932364 815 917 C816.20075209 928.21977261 816.27994812 939.57796901 816.55224609 950.8503418 C816.60398872 952.94591826 816.6610919 955.04129795 816.71875 957.13671875 C816.74904297 958.36092529 816.77933594 959.58513184 816.81054688 960.84643555 C816.88643686 963.81526593 816.88643686 963.81526593 817.49327087 965.88844299 C818.0660796 968.27535586 818.2021447 970.48559481 818.29711914 972.93847656 C818.33708511 973.92180969 818.37705109 974.90514282 818.41822815 975.91827393 C818.47610756 977.51333771 818.47610756 977.51333771 818.53515625 979.140625 C818.57813339 980.25443542 818.62111053 981.36824585 818.66539001 982.51580811 C818.75566839 984.88627357 818.84378855 987.25682206 818.92993164 989.62744141 C819.05947253 993.1672715 819.19813018 996.70665435 819.33789062 1000.24609375 C819.56062996 1006.03559031 819.74474897 1011.82534038 819.90313721 1017.61694336 C819.96693702 1019.84523315 820.03911465 1022.07330128 820.12030029 1024.30102539 C820.82062636 1044.1811035 816.95790676 1057.97845216 808.10119629 1075.56295776 C806.18430412 1079.37002121 804.30697931 1083.19665839 802.421875 1087.01953125 C802.04327332 1087.78439346 801.66467163 1088.54925568 801.27459717 1089.33729553 C797.82263795 1096.32110227 794.51142224 1103.36274586 791.25 1110.4375 C790.73203857 1111.5601123 790.21407715 1112.68272461 789.68041992 1113.83935547 C788.64404259 1116.08800384 787.6084743 1118.33702527 786.57373047 1120.58642578 C784.38762881 1125.32829258 782.18267711 1130.06131574 779.97875977 1134.79492188 C775.38753988 1144.65948575 770.82116754 1154.53490523 766.3125 1164.4375 C765.90233643 1165.33710449 765.49217285 1166.23670898 765.06958008 1167.16357422 C763.29277525 1171.07823365 761.54171009 1174.98495821 760 1179 C757.22535659 1175.62958717 755.41600309 1171.95039778 753.59375 1168.015625 C753.27288925 1167.33214996 752.9520285 1166.64867493 752.6214447 1165.94448853 C751.57639666 1163.71509672 750.53809156 1161.48263841 749.5 1159.25 C748.77252051 1157.69403114 748.04473474 1156.13820545 747.31665039 1154.58251953 C742.88082056 1145.09270838 738.4926429 1135.58136886 734.14990234 1126.04858398 C731.00029397 1119.14546864 727.78739425 1112.27399024 724.55395508 1105.40991211 C721.67153513 1099.29055584 718.80553278 1093.16355697 715.94763184 1087.03271484 C715.31637588 1085.67864114 714.68462203 1084.32479944 714.05236816 1082.97119141 C712.21833643 1079.0421759 710.3984405 1075.10714336 708.59783936 1071.16268921 C707.78117116 1069.38052296 706.9525826 1067.60383392 706.12353516 1065.82739258 C700.86328748 1054.22719789 698.46853963 1043.34643163 698.625 1030.625 C698.63152588 1029.41416748 698.63805176 1028.20333496 698.64477539 1026.95581055 C698.79857009 1012.56294143 699.66157701 998.1820013 700.4375 983.8125 C700.50471252 982.56180725 700.57192505 981.3111145 700.64117432 980.02252197 C700.83678688 976.43782035 701.03968888 972.85362621 701.24609375 969.26953125 C701.30658401 968.17706589 701.36707428 967.08460052 701.42939758 965.95903015 C701.4893541 964.95394913 701.54931061 963.9488681 701.61108398 962.91333008 C701.66215805 962.03340897 701.71323212 961.15348785 701.76585388 960.24690247 C702 958 702 958 703 955 C703.10474739 953.47466508 703.15578286 951.94532756 703.17358398 950.41650391 C703.18716949 949.47898285 703.200755 948.54146179 703.2147522 947.57553101 C703.23026627 946.0415416 703.23026627 946.0415416 703.24609375 944.4765625 C703.27750037 942.26073863 703.3091689 940.04491845 703.34106445 937.82910156 C703.35642242 936.6567395 703.3717804 935.48437744 703.38760376 934.27648926 C703.81996574 902.63552568 705.06681003 871.09515807 706.984375 839.51171875 C707.02819998 838.78972164 707.07202496 838.06772453 707.11717796 837.32384872 C707.55590198 830.10945829 707.99978702 822.89543913 708.46067715 815.68242836 C709.40096281 800.95095854 710.22857723 786.22939522 710.6552887 771.47239685 C710.85168298 764.95309485 711.23705662 758.47675652 711.7660675 751.97599792 C712.06925246 748.11899726 712.26599676 744.26345694 712.4296875 740.3984375 C712.46441666 739.62471802 712.49914581 738.85099854 712.53492737 738.05383301 C712.61017076 736.37737521 712.68459682 734.70088055 712.75827026 733.02435303 C712.96746364 728.27640163 713.18454649 723.52881351 713.40234375 718.78125 C713.44921829 717.7594162 713.49609283 716.7375824 713.54438782 715.68478394 C714.07114665 704.30606917 714.66017585 692.93064137 715.24768066 681.55493164 C716.42843874 658.6641708 717.56056207 635.77144766 718.625 612.875 C718.65728825 612.18099091 718.68957649 611.48698181 718.72284317 610.77194214 C719.52809132 593.43300109 720.30600635 576.09541468 720.70947266 558.74169922 C720.84175378 553.18508069 721.07067533 547.65694918 721.46606445 542.11230469 C722.02440468 534.01548804 722.40661091 525.91293877 722.75390625 517.8046875 C722.78608686 517.06029545 722.81826748 516.3159034 722.85142326 515.54895401 C723.02204798 511.59928973 723.1905347 507.64954124 723.35717773 503.69970703 C723.49216265 500.50812831 723.63088795 497.31674886 723.77319336 494.12548828 C724.18439458 484.88226074 724.55370514 475.63903512 724.85333252 466.39147949 C724.94743736 463.49053036 725.05493065 460.59057977 725.17401123 457.69055176 C725.33542705 453.69260097 725.43498787 449.69545555 725.52734375 445.6953125 C725.5805629 444.52128876 725.63378204 443.34726501 725.68861389 442.13766479 C725.76808703 436.36002363 725.48380386 432.83322581 721.62890625 428.36303711 C720.4474824 427.21233113 719.2400129 426.08731531 718 425 C717.14535156 424.17371094 716.29070313 423.34742188 715.41015625 422.49609375 C714.63542969 421.81675781 713.86070312 421.13742187 713.0625 420.4375 C712.21171875 419.6846875 711.3609375 418.931875 710.484375 418.15625 C708.93908223 416.81505251 707.38799947 415.48045998 705.828125 414.15625 C702.59363447 411.3981573 699.60565023 408.64494218 696.86108398 405.39282227 C692.59693969 400.46490402 688.02187413 395.87817478 683.41015625 391.27734375 C682.50680038 390.37303116 681.60344452 389.46871857 680.67271423 388.53700256 C678.77203932 386.63565057 676.87040392 384.73532447 674.96704102 382.83666992 C672.54881608 380.42414139 670.13511042 378.00714919 667.72272587 375.58878231 C665.39181599 373.25335425 663.05706044 370.92177823 660.72265625 368.58984375 C659.86720718 367.73237045 659.01175812 366.87489716 658.13038635 365.99143982 C653.83364601 361.71126357 649.47309635 357.57843614 644.87626648 353.62236023 C629.68123452 340.48359993 615.78711669 325.85277528 601.67431641 311.57836914 C599.73258219 309.61485531 597.78806413 307.65417195 595.84066772 305.6962738 C594.03310802 303.87854445 592.22959419 302.0567786 590.43106079 300.2301178 C586.31787001 296.10015307 582.12170838 292.1026302 577.68505859 288.32006836 C576.90552826 287.65510849 576.12599792 286.99014862 575.32284546 286.30503845 C573.05138686 284.74792894 573.05138686 284.74792894 570.31265259 285.19483948 C567.80070352 286.06938597 566.76539484 287.06647232 565 289 C564.34 289 563.68 289 563 289 C563 289.66 563 290.32 563 291 C561.125 293.125 561.125 293.125 559 295 C558.34 295 557.68 295 557 295 C556.773125 295.556875 556.54625 296.11375 556.3125 296.6875 C554.64123288 299.6321135 552.39147596 301.60852404 550 304 C549.45577393 304.86947266 548.91154785 305.73894531 548.35083008 306.63476562 C545.42026678 311.11822358 541.55078313 314.71519558 537.76171875 318.46875 C536.96272659 319.26728394 536.16373444 320.06581787 535.3405304 320.8885498 C533.65427462 322.57179318 531.96559775 324.2526142 530.2746582 325.93115234 C527.70143992 328.48615874 525.1362694 331.04903143 522.57226562 333.61328125 C520.92755336 335.25307574 519.28238586 336.89241378 517.63671875 338.53125 C516.87606613 339.29078979 516.11541351 340.05032959 515.33171082 340.83288574 C511.46583537 344.66485117 507.55993439 348.32866124 503.32221985 351.74833679 C501.79638687 353.01747617 501.79638687 353.01747617 501.03125 355.42578125 C499.3364161 359.65644617 495.840616 362.18209895 492.5 365.1875 C490.96267681 366.60311913 489.42760102 368.02118191 487.89453125 369.44140625 C487.0948291 370.18148926 486.29512695 370.92157227 485.47119141 371.68408203 C481.30299296 375.59037826 477.23763897 379.59689073 473.1875 383.625 C472.42953125 384.37031982 471.6715625 385.11563965 470.890625 385.88354492 C467.05619288 389.70974307 463.94841693 393.43347139 461 398 C459.37897032 399.71108689 457.70496537 401.37253306 456 403 C454.72643076 404.26809152 453.45584882 405.539187 452.1875 406.8125 C443.8125 415.1875 443.8125 415.1875 441.81152344 417.18774414 C440.31528316 418.68458936 438.82138949 420.18377985 437.328125 421.68359375 C435.687165 423.31629389 434.02921801 424.93200816 432.359375 426.53515625 C431.49828125 427.36917969 430.6371875 428.20320313 429.75 429.0625 C428.44289063 430.31740234 428.44289063 430.31740234 427.109375 431.59765625 C425.10206625 433.88375788 424.355925 435.03623995 424 438 C421 438 421 438 419.52734375 436.6015625 C419.00269531 435.94929688 418.47804688 435.29703125 417.9375 434.625 C415.10643247 431.23729551 412.14850093 428.0957863 409 425 C406.15136993 422.18543426 403.39470688 419.37264748 400.8125 416.3125 C396.64986181 411.4345636 392.03395664 407.00671638 387.47875977 402.50048828 C383.717482 398.76493745 380.15677962 394.96173194 376.75 390.8984375 C373.57952245 387.45903552 369.9882371 384.45072453 366.453125 381.39453125 C364 379 364 379 362.78271484 376.79418945 C360.34329567 372.97069555 357.26044746 370.0535821 354.0234375 366.8984375 C353.33875397 366.22132721 352.65407043 365.54421692 351.94863892 364.84658813 C349.03531181 361.96571366 346.1104466 359.0966662 343.18603516 356.22705078 C328.21647276 341.51389739 328.21647276 341.51389739 321.84472656 333.31274414 C319.20676826 330.00552088 316.28802703 326.99826525 313.3359375 323.97265625 C312 322 312 322 311.953125 320.01953125 C313.50563445 317.02457833 315.66581059 315.62447732 318.375 313.625 C318.94734375 313.19783691 319.5196875 312.77067383 320.109375 312.33056641 C322.06486474 310.87580993 324.03171842 309.43739411 326 308 C327.45092977 306.93284745 328.90143652 305.86511955 330.3515625 304.796875 C332.70603921 303.06308062 335.06112169 301.33015974 337.41870117 299.60058594 C344.46007357 294.42631248 351.41424976 289.14250357 358.35546875 283.83496094 C363.71619226 279.73663995 369.09476836 275.66442189 374.5 271.625 C381.38213591 266.47883656 388.2008155 261.25507861 395 256 C409.80561441 244.57796722 424.65612191 233.21391659 439.64868164 222.03808594 C444.1865214 218.64369924 448.62028884 215.13983058 452.984375 211.5234375 C454.92371524 210.05765709 456.82972701 209.07385649 459 208 C460.68933922 206.3563186 462.35259924 204.6857124 464 203 C465.21601778 201.88136893 466.44562872 200.77735799 467.6875 199.6875 C468.26886719 199.17574219 468.85023438 198.66398438 469.44921875 198.13671875 C471 197 471 197 473 197 C473 195.68 473 194.36 473 193 C465.11396969 192.97655957 457.22794794 192.95892677 449.34189129 192.94818783 C445.67786595 192.94302693 442.01386489 192.93605719 438.34985352 192.92456055 C434.79661136 192.91348459 431.24339217 192.90767245 427.69013405 192.90512276 C425.71274176 192.90244664 423.73535837 192.89467688 421.75798035 192.88670349 C414.88233694 192.88629129 408.07003011 193.08387219 401.20922852 193.49603271 C391.37288029 194.04579369 381.56174175 194.16189432 371.7121582 194.17700195 C369.87014139 194.18328984 368.02812578 194.18993855 366.18611145 194.19691467 C360.22434319 194.21763923 354.2625755 194.22827021 348.30078125 194.23828125 C346.23339514 194.24233732 344.16600915 194.24645447 342.09862328 194.25063133 C332.40132913 194.26959414 322.70404228 194.28385693 313.00673324 194.2922433 C301.85076508 194.30205574 290.69499319 194.32851624 279.53909427 194.36874419 C270.87878356 194.39889534 262.21852934 194.41371024 253.55816716 194.41702431 C248.39933321 194.41937091 243.24071121 194.42828512 238.08193398 194.45348549 C233.2414387 194.47676124 228.40129533 194.48100149 223.56075859 194.47072411 C221.7886653 194.47022894 220.01655459 194.47654377 218.24451447 194.49028015 C205.86567343 194.58085931 198.58134911 193.24441668 189 185 C188.01 184.67 187.02 184.34 186 184 C184.421875 182.36328125 184.421875 182.36328125 182.75 180.3125 C179.8504642 176.86891484 176.81862551 174.00674271 173.28515625 171.2265625 C172.86105469 170.82179688 172.43695312 170.41703125 172 170 C172 169.34 172 168.68 172 168 C171.45504883 167.78174561 170.91009766 167.56349121 170.34863281 167.33862305 C167.22191413 165.55652341 164.91100199 163.1380162 162.421875 160.58203125 C161.89160706 160.04656174 161.36133911 159.51109222 160.81500244 158.95939636 C159.12182944 157.24846248 157.43547792 155.53101232 155.75 153.8125 C153.53990772 151.56558352 151.3265025 149.32200612 149.109375 147.08203125 C148.31065727 146.27438576 148.31065727 146.27438576 147.49580383 145.45042419 C144.00463221 141.94397214 140.41911293 138.60771431 136.61303711 135.44091797 C134.27619784 133.35343115 132.35567085 130.97164516 130.3671875 128.55859375 C128.47309177 126.39932462 126.27184731 124.74757486 124 123 C122.31066078 121.3563186 120.64740076 119.6857124 119 118 C118.3090625 117.33097656 117.618125 116.66195312 116.90625 115.97265625 C116.1740625 115.25980469 115.441875 114.54695312 114.6875 113.8125 C113.99011719 113.13832031 113.29273438 112.46414063 112.57421875 111.76953125 C111 110 111 110 111 108 C110.44675049 107.77199707 109.89350098 107.54399414 109.32348633 107.30908203 C106.327571 105.62114486 104.25057478 103.49214464 101.82421875 101.0546875 C101.33597122 100.56598175 100.84772369 100.077276 100.34468079 99.57376099 C99.31277802 98.53884333 98.28330056 97.50150249 97.25610352 96.46191406 C95.70825108 94.89599331 94.1527365 93.33803642 92.59570312 91.78125 C87.71462631 86.88235225 82.94764429 81.92618799 78.4465332 76.67138672 C76.47453434 74.39285436 74.38402455 72.25145709 72.25 70.125 C71.51265625 69.38507813 70.7753125 68.64515625 70.015625 67.8828125 C67.94335532 65.84479254 67.94335532 65.84479254 65 64 C65 63.34 65 62.68 65 62 C63.68 61.34 62.36 60.68 61 60 C61 59.34 61 58.68 61 58 C60.41210693 57.73952881 59.82421387 57.47905762 59.21850586 57.21069336 C56.85857164 55.92281906 55.36212677 54.56202776 53.50390625 52.62890625 C52.86259766 51.97212891 52.22128906 51.31535156 51.56054688 50.63867188 C50.23234556 49.25853698 48.90422012 47.87832907 47.57617188 46.49804688 C46.93357422 45.83998047 46.29097656 45.18191406 45.62890625 44.50390625 C45.05213135 43.90392822 44.47535645 43.3039502 43.88110352 42.68579102 C42.00814755 40.89351948 42.00814755 40.89351948 39.52587891 39.55688477 C36.75562938 37.84937643 35.06364551 36.0576235 32.95703125 33.5859375 C27.46584262 27.32231939 21.59812918 21.48781002 15.6875 15.625 C14.60588207 14.54841587 13.52450069 13.47159402 12.44335938 12.39453125 C10.46848649 10.42772977 8.49202378 8.46257987 6.5144043 6.49853516 C4.33868707 4.33654952 2.16827503 2.16944199 0 0 Z " fill="#FEFDFD" transform="translate(491,776)"/>
<path d="M0 0 C1.11246094 0.01804687 2.22492188 0.03609375 3.37109375 0.0546875 C21.05649411 0.79067723 38.30823132 5.4562205 55 11.0625 C55.63607178 11.27582977 56.27214355 11.48915955 56.92749023 11.70895386 C64.11321212 14.1378499 71.1456987 16.74398022 78 20 C78 20.66 78 21.32 78 22 C79.051875 22.12375 80.10375 22.2475 81.1875 22.375 C84.45958771 22.91140782 87.00536076 23.63880035 90 25 C90 25.66 90 26.32 90 27 C91.2375 27.061875 91.2375 27.061875 92.5 27.125 C96.55810244 28.13952561 98.77433556 29.82655532 101.97265625 32.4296875 C104.00975718 34.07166011 104.00975718 34.07166011 106.44921875 35.46875 C113.76774032 39.86210445 119.92241688 45.75561876 125.84375 51.84375 C127.86327228 53.86327228 129.94577633 55.71854151 132.125 57.5625 C136.17835384 61.05621919 139.56865549 64.9064207 143 69 C143.66878174 69.7736792 144.33756348 70.5473584 145.02661133 71.34448242 C151.3829228 78.84665231 156.36614725 86.8494297 161.28125 95.3449707 C162.28488911 97.07163866 163.30627589 98.78795226 164.328125 100.50390625 C165.20839355 102.01706421 165.20839355 102.01706421 166.10644531 103.56079102 C169.06634579 107.37362826 172.58314485 108.08698742 177.1875 108.81640625 C177.96311279 108.94039795 178.73872559 109.06438965 179.5378418 109.19213867 C180.350354 109.31435791 181.16286621 109.43657715 182 109.5625 C182.83635986 109.69180908 183.67271973 109.82111816 184.53442383 109.9543457 C191.34274213 110.97412544 198.12266055 111.64193385 205 112 C204.67 113.32 204.34 114.64 204 116 C203.34 116 202.68 116 202 116 C201.76796875 116.67546875 201.5359375 117.3509375 201.296875 118.046875 C199.66867003 121.75447428 197.53124759 124.91639118 195.25 128.25 C193.35135069 131.05693762 193.35135069 131.05693762 191.4666748 133.8732605 C190.50486263 135.26792818 189.49944816 136.63370856 188.44934082 137.96316528 C183.86157431 144.04424427 183.15006501 148.72993013 183.265625 156.2265625 C183.25666199 157.29127777 183.24769897 158.35599304 183.23846436 159.45297241 C183.21450931 162.84422026 183.23014832 166.23375126 183.25 169.625 C183.24805994 174.05479228 183.23007424 178.48435489 183.203125 182.9140625 C183.19684586 184.00508774 183.19056671 185.09611298 183.18409729 186.22019958 C183.03514444 200.86206752 182.79781596 216.20028706 178.0625 230.1875 C177.51501247 231.93038931 176.96942031 233.6738752 176.42578125 235.41796875 C176.17135254 236.21509277 175.91692383 237.0122168 175.65478516 237.83349609 C174.84123824 240.52529897 174.29221507 243.24211472 173.75 246 C170.54257126 259.26882721 162.94108226 272.99811515 155 284 C154.26394531 285.02996094 153.52789063 286.05992187 152.76953125 287.12109375 C148.43996791 293.02941705 143.78478592 298.48653083 138.625 303.6875 C138.12524658 304.19273193 137.62549316 304.69796387 137.1105957 305.21850586 C134.5453505 307.73352854 132.20951082 309.44807605 129 311 C127.64679918 312.31316529 126.31413321 313.64773913 125 315 C123.57817216 316.10382198 122.1400985 317.18699719 120.6875 318.25 C116.69939892 321.27885437 113.59546803 324.56567234 110.5078125 328.49609375 C109 330 109 330 106 330 C106 330.66 106 331.32 106 332 C103.99294997 333.70926812 101.9847099 335.30189023 99.875 336.875 C99.30523438 337.30941406 98.73546875 337.74382812 98.1484375 338.19140625 C94.51974103 340.93766972 90.80339949 343.49887697 87 346 C85.54205491 346.98562876 84.08511805 347.9727497 82.62890625 348.9609375 C70.51755442 357.13959411 58.20704207 364.90787893 45.66259766 372.40429688 C43.18787731 373.88740454 40.72362999 375.3863852 38.26171875 376.890625 C27.6499405 383.32585177 17.07649336 388.80706785 5 392 C4.31462158 392.22598877 3.62924316 392.45197754 2.9230957 392.68481445 C-3.67674308 394.61916189 -8.17547682 393.18024014 -14.4375 390.6875 C-15.33404297 390.35298828 -16.23058594 390.01847656 -17.15429688 389.67382812 C-23.19657105 387.40171448 -23.19657105 387.40171448 -26 386 C-26 385.34 -26 384.68 -26 384 C-27.00417969 383.90460938 -28.00835938 383.80921875 -29.04296875 383.7109375 C-33.16722071 383.11303993 -36.64138885 381.53878321 -40.3125 379.625 C-41.00053711 379.27195801 -41.68857422 378.91891602 -42.39746094 378.55517578 C-63.4110803 367.57529948 -82.4949013 353.45207939 -101.48046875 339.34765625 C-104.46922183 337.12745803 -107.47095551 334.92730107 -110.48828125 332.74609375 C-111.18783936 332.23908936 -111.88739746 331.73208496 -112.6081543 331.2097168 C-113.91849084 330.26134466 -115.2310374 329.31601592 -116.54614258 328.37426758 C-120.88859394 325.22281212 -120.88859394 325.22281212 -122 323 C-122.721875 322.566875 -123.44375 322.13375 -124.1875 321.6875 C-128.46390328 319.12165803 -132.02647762 316.23121948 -135.125 312.3125 C-136.77635979 309.93865011 -136.77635979 309.93865011 -138.921875 309.078125 C-141.31478413 307.83669094 -142.44205632 306.53060835 -144.125 304.4375 C-147.65441756 300.23581243 -151.58865644 296.72361014 -155.765625 293.17578125 C-158.071485 290.93038961 -159.36031158 288.75112671 -161 286 C-161.80308594 285.20078125 -162.60617187 284.4015625 -163.43359375 283.578125 C-171.40177034 275.57356404 -178.03459077 263.34355851 -179 252 C-179.66 252 -180.32 252 -181 252 C-183.21405698 246.68626324 -184.7796242 241.32105772 -186.1875 235.75 C-186.36635742 235.05261719 -186.54521484 234.35523438 -186.72949219 233.63671875 C-187.55745284 230.28614116 -188 227.47700398 -188 224 C-188.66 224 -189.32 224 -190 224 C-192.6130851 213.19826124 -192.27020467 202.28508667 -192.20581055 191.24609375 C-192.18754362 188.00773214 -192.18530154 184.76965786 -192.18554688 181.53125 C-192.15148174 162.79822008 -192.15148174 162.79822008 -191.13891602 154.19018555 C-190.91599582 150.67556849 -191.57331664 148.21003757 -193 145 C-193.99 144.67 -194.98 144.34 -196 144 C-196.90289736 141.98584436 -197.7940101 139.96585201 -198.63671875 137.92578125 C-200.32433257 134.30393956 -202.34793409 130.96375176 -204.4375 127.5625 C-207.94056753 121.84538488 -211.15367416 116.07883659 -214 110 C-211.77217942 109.55569632 -209.54260212 109.12020638 -207.3125 108.6875 C-206.6100415 108.54634766 -205.90758301 108.40519531 -205.18383789 108.25976562 C-200.95836252 107.44331939 -196.79938554 106.86023973 -192.5078125 106.51953125 C-182.85925432 106.00952979 -182.85925432 106.00952979 -174.4609375 101.92578125 C-172.64084906 99.04038038 -171.34465824 96.13509992 -170 93 C-168.52507507 90.34036826 -166.92788662 87.76370448 -165.3125 85.1875 C-164.89049316 84.50623047 -164.46848633 83.82496094 -164.03369141 83.12304688 C-159.39520729 75.78325654 -153.91282 69.33739613 -148 63 C-147.48034668 62.44183594 -146.96069336 61.88367188 -146.42529297 61.30859375 C-136.34629462 50.60567219 -125.18179474 41.72098206 -113.0625 33.4375 C-112.15878662 32.81065308 -112.15878662 32.81065308 -111.23681641 32.17114258 C-107.25343829 29.51794594 -103.66139885 28.10135222 -99 27 C-99 26.34 -99 25.68 -99 25 C-96.89893028 24.06586609 -94.79773343 23.13202141 -92.69628906 22.19873047 C-90.91108431 21.40505469 -89.12656797 20.6098285 -87.34277344 19.81298828 C-58.81373575 7.09196091 -31.43991172 -0.87850097 0 0 Z " fill="#FEFEFE" transform="translate(1254,640)"/>
<path d="M0 0 C2.22003513 3.3300527 2.616077 5.48047299 3.29907227 9.39990234 C3.47016793 10.36216925 3.47016793 10.36216925 3.64472008 11.34387589 C3.89118741 12.7344608 4.13444438 14.12561769 4.37486076 15.51726151 C4.89223818 18.51151541 5.42505529 21.50296325 5.95683002 24.49468803 C6.23239946 26.0460551 6.5071542 27.59756709 6.78112316 29.14921761 C8.09857553 36.6025081 9.49403982 44.03988488 10.90234375 51.4765625 C11.3982908 54.11011028 11.89393254 56.74371264 12.38891602 59.37744141 C12.51416625 60.04380049 12.63941648 60.71015957 12.76846218 61.39671135 C19.00174766 94.57602227 24.84427273 127.81567026 30.50466919 161.09737015 C31.11852512 164.70517964 31.73422458 168.31267368 32.34994125 171.92016602 C32.76624754 174.36549517 33.17919254 176.81137335 33.59182739 179.25732422 C35.12505108 188.28377391 36.80736961 197.26798573 38.65548038 206.23571205 C39.9647531 212.62727901 40.914664 219.01361438 41.625 225.5 C41.86426633 227.52753547 42.10513208 229.55488289 42.34765625 231.58203125 C42.51418701 232.98702881 42.51418701 232.98702881 42.68408203 234.42041016 C43.50650884 242.98971834 43.50650884 242.98971834 45.96484375 251.13671875 C47.54867717 255.51766175 47.93391434 260.01654632 48.5 264.625 C49.37333334 271.42012191 50.27563376 278.16626682 51.66796875 284.87890625 C52.04363551 287.27875393 52.05540873 289.57480263 52 292 C52.66 292 53.32 292 54 292 C54.08451416 292.6177832 54.16902832 293.23556641 54.25610352 293.87207031 C58.67688916 325.96112601 63.81853859 357.93432894 69.5625 389.8125 C69.84833954 391.3993158 69.84833954 391.3993158 70.13995361 393.01818848 C71.98601077 403.23703343 73.86257181 413.44755168 75.90625 423.62890625 C76.05021713 424.35046402 76.19418427 425.07202179 76.34251404 425.81544495 C76.98661388 429.03692483 77.64290666 432.25415568 78.32446289 435.46801758 C82.18376792 454.42063052 82.18376792 454.42063052 77.6875 462.75 C76.00664608 466.01701184 74.53538398 469.1376428 73.375 472.625 C72.92125 473.73875 72.4675 474.8525 72 476 C71.01 476.33 70.02 476.66 69 477 C68.26810392 478.63906997 67.61095748 480.31211577 67 482 C66.05567307 483.69233193 65.0754362 485.36496204 64.06640625 487.01953125 C63.49986328 487.95990234 62.93332031 488.90027344 62.34960938 489.86914062 C61.16445315 491.82108645 59.97697626 493.77162525 58.78710938 495.72070312 C56.24504263 499.94786292 53.87872111 503.95777578 52.27734375 508.63671875 C51.85582031 509.74660156 51.43429687 510.85648438 51 512 C50.01 512.33 49.02 512.66 48 513 C47.28253058 514.64543607 46.62647012 516.31781172 46 518 C44.74294332 520.12502439 43.44811723 522.22796625 42.125 524.3125 C39.90155977 527.81674326 37.83039936 531.26058882 36.0078125 534.98828125 C34.15355065 538.77041545 32.02101924 542.33021643 29.75 545.875 C28.8648802 547.27410416 27.98084583 548.67389534 27.09765625 550.07421875 C26.6092627 550.84813965 26.12086914 551.62206055 25.61767578 552.41943359 C22.44044661 557.48784778 19.31796463 562.59012274 16.1875 567.6875 C11.70624414 574.98054492 7.21832292 582.26914808 2.7043457 589.54199219 C-4.11759859 600.53419864 -10.82468099 611.58365334 -17.37109375 622.7421875 C-17.96019531 623.74451416 -18.54929687 624.74684082 -19.15625 625.77954102 C-20.32708607 627.77313976 -21.49514013 629.76837547 -22.66015625 631.76538086 C-23.19382812 632.67425049 -23.7275 633.58312012 -24.27734375 634.51953125 C-24.75421631 635.33526611 -25.23108887 636.15100098 -25.72241211 636.99145508 C-27 639 -27 639 -29 641 C-30.50551738 631.95818826 -31.27686052 623.22683744 -31.40563965 614.05969238 C-31.61650731 600.42762311 -32.31154134 586.84917231 -33.25 573.25 C-34.73956324 551.54922592 -36.02554255 529.83942636 -37.27565765 508.12377167 C-37.70845242 500.60593903 -38.14225646 493.08816446 -38.57617188 485.57039642 C-38.68426111 483.69766193 -38.79231367 481.82492531 -38.90032959 479.95218658 C-39.62035203 467.47371453 -40.35318384 454.99610013 -41.10546875 442.51953125 C-41.14880718 441.80041565 -41.19214561 441.08130005 -41.23679733 440.34039307 C-41.57355012 434.75412979 -41.91093433 429.16790462 -42.24845886 423.58168793 C-43.62118066 400.85141134 -44.88606942 378.1174271 -46.04931641 355.37548828 C-46.13511208 353.72222786 -46.13511208 353.72222786 -46.22264099 352.03556824 C-46.32762178 350.01086348 -46.43071823 347.98605958 -46.53138733 345.96113586 C-46.80592737 340.69080385 -47.23196046 335.46136752 -47.78330994 330.21299744 C-48.0492289 327.49723849 -48.17413368 324.79386243 -48.24609375 322.06640625 C-48.27759521 321.02000977 -48.30909668 319.97361328 -48.34155273 318.89550781 C-48.37321533 317.79561523 -48.40487793 316.69572266 -48.4375 315.5625 C-48.7436488 306.27237954 -49.21865972 297.01734107 -49.9375 287.75 C-50.02378662 286.63415527 -50.11007324 285.51831055 -50.19897461 284.36865234 C-50.37708048 282.07273852 -50.55538642 279.77684022 -50.73388672 277.48095703 C-52.2347071 257.84912488 -53.24622956 238.21661546 -54.05661011 218.5463562 C-54.83433965 199.73653224 -55.85075426 180.9439271 -56.94702148 162.15014648 C-58.24770487 139.68828357 -59.24206707 117.20882011 -59.45996094 94.70776367 C-59.48699837 92.5838418 -59.52836822 90.46006099 -59.58300781 88.33666992 C-60.14977057 65.81126444 -60.14977057 65.81126444 -52 57 C-51.21399414 56.01036255 -51.21399414 56.01036255 -50.41210938 55.00073242 C-48.99415383 53.21584566 -47.51867101 51.51198313 -46 49.8125 C-45.47801025 49.21646973 -44.95602051 48.62043945 -44.41821289 48.00634766 C-43.39792157 46.84252087 -42.37472274 45.6812343 -41.34814453 44.52294922 C-39.69438686 42.65476009 -38.06734727 40.76405189 -36.4375 38.875 C-33.03419874 34.99740003 -29.53564632 31.20695468 -26.0378418 27.41479492 C-23.55283988 24.71573713 -21.11827242 21.98914185 -18.75 19.1875 C-16.32152472 16.43397475 -13.83156911 13.77437982 -11.23828125 11.17578125 C-10.55475586 10.49040283 -9.87123047 9.80502441 -9.16699219 9.09887695 C-6.11856293 6.05858155 -3.06350663 3.02510202 0 0 Z " fill="#FEFDFD" transform="translate(1376,1149)"/>
<path d="M0 0 C1.10069461 0.93552056 2.20023956 1.87239383 3.29931641 2.80981445 C3.91175201 3.33138626 4.52418762 3.85295807 5.15518188 4.39033508 C8.00695636 6.87860278 10.70162665 9.51003391 13.375 12.1875 C13.93735352 12.75065918 14.49970703 13.31381836 15.07910156 13.89404297 C20.09080131 18.97872864 24.58444808 24.39216684 29 30 C30.43424254 31.7526707 31.87181468 33.50262138 33.3125 35.25 C34.05628906 36.16265625 34.80007813 37.0753125 35.56640625 38.015625 C36.82551745 39.55970358 38.08535565 41.10322651 39.35498047 42.63867188 C42.41781351 46.3439323 45.41042623 50.09483513 48.3515625 53.89746094 C49.48434873 55.34230024 50.63662136 56.77200674 51.8046875 58.18847656 C61.35318905 69.82697185 64.65169492 77.9076425 63.24804688 92.88671875 C62.86686111 97.67105034 62.81537842 102.45652761 62.71533203 107.25366211 C62.4476296 119.09696232 61.78526512 130.88002968 60.7331543 142.68041992 C59.92945971 151.98203609 59.59325242 161.28257553 59.34179688 170.61401367 C59.19577911 175.73841767 58.98029258 180.74477855 58.26098633 185.82739258 C57.62410678 191.12916163 57.43560035 196.48379384 57.125 201.8125 C56.54876645 211.47530533 55.93201854 221.13392505 55.23828125 230.7890625 C55.17259445 231.70392426 55.10690765 232.61878601 55.03923035 233.56137085 C54.90562673 235.42057491 54.77199526 237.27977697 54.63833618 239.13897705 C53.67734826 252.5297253 52.78931116 265.89923769 52.34130859 279.31884766 C51.79895178 294.88689278 50.63611264 310.44681776 49 325.9375 C47.31624488 341.88626547 46.41596689 357.90765842 45.46484375 373.9140625 C45.42050201 374.65781631 45.37616028 375.40157013 45.33047485 376.16786194 C45.11501654 379.79030113 44.90298266 383.41288296 44.69726562 387.03588867 C44.05829035 397.98773703 44.05829035 397.98773703 43.47265625 402.2890625 C42.7521852 407.94565341 42.61308473 413.61601443 42.39453125 419.31054688 C42.35714844 420.19935547 42.31976562 421.08816406 42.28125 422.00390625 C42.25095703 422.79611572 42.22066406 423.5883252 42.18945312 424.40454102 C42 427 42 427 41.50610352 430.22338867 C40.91494093 434.63472202 40.76243671 438.97755628 40.62109375 443.421875 C40.20886023 454.26447245 39.46648135 465.0718949 38.66015625 475.890625 C38.56550174 477.16417973 38.56550174 477.16417973 38.46893501 478.46346283 C38.13906217 482.89606442 37.80703884 487.32850189 37.47396851 491.76086426 C34.48912136 531.50540145 34.48912136 531.50540145 32.49438477 571.30957031 C32.46484711 572.08220215 32.43530945 572.85483398 32.40487671 573.65087891 C32.33172683 575.62545522 32.26636966 577.6003164 32.2019043 579.57519531 C32 583 32 583 31.49511719 586.48950195 C30.98068031 590.1369812 30.82472574 593.65794538 30.75390625 597.33984375 C30.7209178 598.74805192 30.68770714 600.1562549 30.65429688 601.56445312 C30.60744905 603.73571615 30.5630606 605.9069664 30.52319336 608.07836914 C30.32326652 618.50688804 29.48721545 628.67467428 28 639 C25.82758944 636.22599272 24.05645385 633.43105666 22.3984375 630.32421875 C21.91342773 629.42227783 21.42841797 628.52033691 20.92871094 627.59106445 C20.41598633 626.63288818 19.90326172 625.67471191 19.375 624.6875 C15.27431305 617.10147454 11.07514359 609.62436992 6.5859375 602.26171875 C3.4767129 597.16163216 0.44705795 592.0145252 -2.59194946 586.87240601 C-8.38939137 577.06602728 -14.21010365 567.27369399 -20.0625 557.5 C-20.65691895 556.50500488 -21.25133789 555.51000977 -21.86376953 554.48486328 C-25.29555646 548.76264126 -28.81222432 543.10566905 -32.42578125 537.49633789 C-39 527.07118486 -39 527.07118486 -39 524 C-39.99 523.67 -40.98 523.34 -42 523 C-42.75823787 521.31941249 -43.50709245 519.63317998 -44.18212891 517.91748047 C-45.47256701 514.89207723 -47.32606005 512.2561629 -49.1875 509.5625 C-50.07425657 508.25002555 -50.96097231 506.93752352 -51.84765625 505.625 C-53.52856612 503.15491254 -55.21375952 500.68783976 -56.90185547 498.22265625 C-61.69584234 491.20852693 -66.40827578 484.14839427 -71 477 C-71.49467773 476.23478027 -71.98935547 475.46956055 -72.49902344 474.68115234 C-72.92989258 473.99617676 -73.36076172 473.31120117 -73.8046875 472.60546875 C-74.16288574 472.03852295 -74.52108398 471.47157715 -74.89013672 470.88745117 C-78.31862035 464.28464119 -79.49827242 459.04787752 -79.37109375 451.6796875 C-79.36218613 450.80704254 -79.3532785 449.93439758 -79.34410095 449.03530884 C-79.14505216 439.97513946 -77.73109761 431.26185832 -76.0625 422.375 C-75.74640906 420.61917597 -75.43192469 418.86306209 -75.11889648 417.10668945 C-74.44830512 413.36145389 -73.76734588 409.61831621 -73.078125 405.87646484 C-71.96813346 399.84461025 -70.8884355 393.80753994 -69.8125 387.76953125 C-67.93642778 377.25738518 -66.03809164 366.74938559 -64.13183594 356.24267578 C-63.1959644 351.08410916 -62.26407058 345.92483432 -61.33369446 340.76527405 C-60.62185296 336.81916368 -59.90829946 332.87336422 -59.19430542 328.92764282 C-58.86426735 327.10252653 -58.53475246 325.27731552 -58.20584106 323.45199585 C-56.35546318 313.18918357 -54.43090431 302.94801498 -52.32243347 292.73464966 C-51.12340441 286.86486829 -50.29518201 281.0207183 -49.5625 275.07421875 C-48.87614565 269.83406419 -47.93514863 264.63798441 -47 259.4375 C-46.83371094 258.49664551 -46.66742187 257.55579102 -46.49609375 256.58642578 C-45.63870194 251.89355583 -44.55307483 247.5192478 -43 243 C-42.75981182 241.4028724 -42.5664045 239.79743496 -42.4375 238.1875 C-42.10218978 234.10218978 -42.10218978 234.10218978 -41 233 C-40.68581414 230.92894985 -40.42316341 228.85007949 -40.1796875 226.76953125 C-39.04363695 217.68202118 -37.37497838 208.7094776 -35.69055176 199.71017456 C-34.89327583 195.44901608 -34.10503527 191.18619798 -33.31616211 186.92347717 C-32.88702057 184.60467046 -32.4574873 182.28593622 -32.02758789 179.9672699 C-29.40180054 165.79675074 -26.82502928 151.61731074 -24.25 137.4375 C-24.12623615 136.75601646 -24.00247231 136.07453293 -23.87495804 135.37239838 C-22.72208689 129.02395971 -21.56964541 122.67544317 -20.41816711 116.32675171 C-19.0393716 108.72496259 -17.6590855 101.12344878 -16.27587891 93.52246094 C-14.96075879 86.29560404 -13.64792328 79.06833603 -12.33753777 71.84061909 C-11.64216905 68.00552267 -10.94588769 64.17059853 -10.24694824 60.33615112 C-6.58851466 40.26019804 -3.16719426 20.15960773 0 0 Z " fill="#FEFDFD" transform="translate(1124,1146)"/>
<path d="M0 0 C23.43 0.33 46.86 0.66 71 1 C71 1.33 71 1.66 71 2 C62.0383562 2.1999697 53.07657118 2.38371635 44.1141758 2.54658794 C39.95285577 2.6227242 35.79180465 2.70450764 31.63085938 2.79907227 C27.6175166 2.89007665 23.60414145 2.96640984 19.59031296 3.03244972 C18.05676187 3.06028456 16.5232984 3.09346224 14.98997879 3.13199425 C12.84698164 3.18494665 10.70446321 3.21912323 8.56103516 3.2487793 C6.72903061 3.28541939 6.72903061 3.28541939 4.86001587 3.32279968 C3.91621063 3.21627579 2.9724054 3.10975189 2 3 C1.34 2.01 0.68 1.02 0 0 Z " fill="#F6CDD1" transform="translate(491,776)"/>
<path d="M0 0 C0.33 0.66 0.66 1.32 1 2 C0.29101562 2.70511719 -0.41796875 3.41023437 -1.1484375 4.13671875 C-3.04999175 6.0362629 -4.92708176 7.95621844 -6.7890625 9.89453125 C-7.73433725 10.86722419 -8.67964995 11.83988024 -9.625 12.8125 C-10.10195312 13.31458984 -10.57890625 13.81667969 -11.0703125 14.33398438 C-12.32390002 15.6136883 -13.6577697 16.81360139 -15 18 C-15.99 18 -16.98 18 -18 18 C-16.55172728 14.45289355 -14.77818647 12.83782763 -11.6875 10.625 C-7.79790899 7.72344015 -4.98515496 4.79928813 -2 1 C-1.34 0.67 -0.68 0.34 0 0 Z " fill="#F2B8BF" transform="translate(1394,982)"/>
<path d="M0 0 C0.33 0.99 0.66 1.98 1 3 C0.25556641 3.63615234 0.25556641 3.63615234 -0.50390625 4.28515625 C-8.79773234 10.84617822 -8.79773234 10.84617822 -15.03125 19.12890625 C-16 21 -16 21 -18.625 22.25 C-19.40875 22.4975 -20.1925 22.745 -21 23 C-19.48623919 19.43235715 -17.39486871 17.16293713 -14.6484375 14.453125 C-13.79765625 13.60878906 -12.946875 12.76445313 -12.0703125 11.89453125 C-11.18085937 11.02183594 -10.29140625 10.14914062 -9.375 9.25 C-8.4778125 8.36183594 -7.580625 7.47367188 -6.65625 6.55859375 C-4.44192996 4.36783031 -2.22307565 2.18187237 0 0 Z " fill="#F1A5AD" transform="translate(1376,1149)"/>
<path d="M0 0 C-1.0210505 2.71897717 -1.67681587 3.81644943 -4.2421875 5.2734375 C-5.54542969 5.81871094 -5.54542969 5.81871094 -6.875 6.375 C-10.2945982 7.94987952 -12.43772554 9.00636246 -14.3125 12.3125 C-14.869375 13.199375 -15.42625 14.08625 -16 15 C-18.75 15.375 -18.75 15.375 -21 15 C-6.88235294 0 -6.88235294 0 0 0 Z " fill="#F2B5BD" transform="translate(1147,671)"/>
<path d="M0 0 C0.33 0.66 0.66 1.32 1 2 C-0.66666667 3.66666667 -2.33333333 5.33333333 -4 7 C-4.7425 7.78375 -5.485 8.5675 -6.25 9.375 C-9.93533967 12.89282423 -13.93936596 15.93019605 -18 19 C-18.66 18.67 -19.32 18.34 -20 18 C-19.19175781 17.26394531 -18.38351562 16.52789063 -17.55078125 15.76953125 C-16.47129779 14.78391591 -15.39187388 13.79823535 -14.3125 12.8125 C-13.51682617 12.08836914 -13.51682617 12.08836914 -12.70507812 11.34960938 C-10.17342411 9.03539804 -7.70576845 6.70237184 -5.29296875 4.26171875 C-3 2 -3 2 0 0 Z " fill="#F2B5BD" transform="translate(1371,1003)"/>
<path d="M0 0 C0.66 0.33 1.32 0.66 2 1 C-9.80011054 13.11431466 -9.80011054 13.11431466 -17 15 C-13.59049601 11.49094845 -10.05958699 8.31826195 -6.25 5.25 C-3.02987225 2.73321911 -3.02987225 2.73321911 0 0 Z " fill="#F4CAD0" transform="translate(939,991)"/>
<path d="M0 0 C0.66 0.33 1.32 0.66 2 1 C-1.49359465 4.59634744 -5.11098131 7.83451967 -9 11 C-9.33 10.01 -9.66 9.02 -10 8 C-6.7 5.36 -3.4 2.72 0 0 Z " fill="#F2BCC4" transform="translate(813,1087)"/>
<path d="M0 0 C0 3.6404329 -0.63096927 4.06307093 -3.125 6.5625 C-6.19262122 9.5239103 -8.7640173 11.07015014 -13 12 C-10.08559728 7.87126282 -6.76058792 5.15233416 -2.70703125 2.234375 C-1.05726344 1.11014853 -1.05726344 1.11014853 0 0 Z " fill="#F2BBC1" transform="translate(1312,1057)"/>
<path d="M0 0 C2.34290892 2.48434437 2.97982934 3.77731593 3.29296875 7.234375 C3.25816406 8.39453125 3.22335937 9.5546875 3.1875 10.75 C3.16042969 11.92046875 3.13335938 13.0909375 3.10546875 14.296875 C3.07066406 15.18890625 3.03585937 16.0809375 3 17 C2.67 17 2.34 17 2 17 C2 14.36 2 11.72 2 9 C1.34 9 0.68 9 0 9 C0 6.03 0 3.06 0 0 Z " fill="#F3CCD2" transform="translate(1300,1625)"/>
<path d="M0 0 C0.66 0 1.32 0 2 0 C0.40907948 4.13639336 -2.60474918 7.23213248 -6 10 C-6.66 10 -7.32 10 -8 10 C-8 10.66 -8 11.32 -8 12 C-8.66 11.67 -9.32 11.34 -10 11 C-8.38405168 8.95880212 -6.7143618 6.95927063 -5 5 C-4.34 5 -3.68 5 -3 5 C-3 4.34 -3 3.68 -3 3 C-2.34 3 -1.68 3 -1 3 C-0.67 2.01 -0.34 1.02 0 0 Z " fill="#E24056" transform="translate(1057,1062)"/>
<path d="M0 0 C0.66 0 1.32 0 2 0 C0.69386058 3.91841827 -0.83129848 6.32640809 -4 9 C-4.66 9 -5.32 9 -6 9 C-6 9.66 -6 10.32 -6 11 C-6.66 10.67 -7.32 10.34 -8 10 C-7.236875 9.0925 -6.47375 8.185 -5.6875 7.25 C-4.143943 5.40994052 -2.70563699 3.58571132 -1.3125 1.625 C-0.879375 1.08875 -0.44625 0.5525 0 0 Z " fill="#F1B5BD" transform="translate(1456,916)"/>
<path d="M0 0 C0 3.19219704 -0.23605791 4.39608549 -2 7 C-4.625 8.25 -4.625 8.25 -7 9 C-5.44499019 5.18315774 -2.96404505 2.80804268 0 0 Z " fill="#F1B1B9" transform="translate(1362,1163)"/>
<path d="M0 0 C0.66 0.33 1.32 0.66 2 1 C-2.30769231 6.78461538 -2.30769231 6.78461538 -5.8125 7.875 C-6.8953125 7.936875 -6.8953125 7.936875 -8 8 C-5.33333333 5.33333333 -2.66666667 2.66666667 0 0 Z " fill="#F2B4BD" transform="translate(959,975)"/>
<path d="M0 0 C0.99 0.33 1.98 0.66 3 1 C1.8125 3 1.8125 3 0 5 C-2.6875 5.25 -2.6875 5.25 -5 5 C-3.35 3.35 -1.7 1.7 0 0 Z " fill="#F5D6DA" transform="translate(1131,681)"/>
<path d="M0 0 C0.66 0.33 1.32 0.66 2 1 C-1.465 3.97 -1.465 3.97 -5 7 C-5 6.01 -5 5.02 -5 4 C-2.5 1.8125 -2.5 1.8125 0 0 Z " fill="#F8F2F5" transform="translate(1356,1018)"/>
<path d="M0 0 C2.79579355 1.39789678 3.59807058 3.2628997 5 6 C4.67 6.66 4.34 7.32 4 8 C2.02 5.69 0.04 3.38 -2 1 C-1.34 0.67 -0.68 0.34 0 0 Z " fill="#F3C4CA" transform="translate(604,884)"/>
<path d="M0 0 C1 2 1 2 0.0625 5.125 C-0.288125 6.07375 -0.63875 7.0225 -1 8 C-1.99 8 -2.98 8 -4 8 C-2.87548273 5.0280615 -1.77706209 2.66559313 0 0 Z " fill="#F0B8BF" transform="translate(1496,860)"/>
</svg>
